# xmcd CD database file
#
# Track frame offsets:
#	150
#	24191
#	41176
#	64998
#	80650
#	89865
#	101784
#	116073
#	132060
#	141248
#
# Disc length: 2055 seconds
#
# Revision: 0
# Processed by: cddbd v1.4PL0 Copyright (c) Steve Scherf et al.
# Submitted via: CDex 1.51
#
DISCID=9208050a
DTITLE=Jed Davis - In The Presence of Presents 2003
DYEAR=2003
DGENRE=Merengue
TTITLE0=I Screwed Up
TTITLE1=No Milk Today
TTITLE2=Tarzan Boy
TTITLE3=The Creatures
TTITLE4=Political Science
TTITLE5=Take Your Clothes Off When You Dance
TTITLE6=Forever Young
TTITLE7=Honk If You're Lonely
TTITLE8=The Look Of Love
TTITLE9=A Kiss At The End Of The Rainbow
EXTD=YEAR: 2003
EXTT0=
EXTT1=
EXTT2=
EXTT3=
EXTT4=
EXTT5=
EXTT6=
EXTT7=
EXTT8=
EXTT9=
PLAYORDER=
